<mxfile host="app.diagrams.net" modified="2024-05-01T18:17:54.088Z" agent="Mozilla/5.0 (Macintosh; Intel Mac OS X 10_15_7) AppleWebKit/537.36 (KHTML, like Gecko) Chrome/124.0.0.0 Safari/537.36" etag="-V9FWV-IYgqdfdXpTdpu" version="24.3.1" type="device">
  <diagram name="Page-1" id="xxLzbWOs6Ypp5kgbufra">
    <mxGraphModel dx="804" dy="676" grid="1" gridSize="10" guides="1" tooltips="1" connect="1" arrows="1" fold="1" page="1" pageScale="1" pageWidth="850" pageHeight="1100" math="0" shadow="0">
      <root>
        <mxCell id="0" />
        <mxCell id="1" parent="0" />
        <mxCell id="_YFQa5YUms1L-VkqHwmq-1" value="Main.py" style="swimlane;fontStyle=1;align=center;verticalAlign=top;childLayout=stackLayout;horizontal=1;startSize=26;horizontalStack=0;resizeParent=1;resizeParentMax=0;resizeLast=0;collapsible=1;marginBottom=0;whiteSpace=wrap;html=1;" parent="1" vertex="1">
          <mxGeometry x="360" y="200" width="160" height="338" as="geometry" />
        </mxCell>
        <mxCell id="_YFQa5YUms1L-VkqHwmq-2" value="+ display_width: int&lt;div&gt;+ dispay_height: int&lt;/div&gt;&lt;div&gt;+ display_time: int&lt;/div&gt;&lt;div&gt;+ running: bool&lt;/div&gt;&lt;div&gt;+ start_time: pygame.time&lt;/div&gt;&lt;div&gt;+ gamestart: bool&lt;/div&gt;&lt;div&gt;+ inventory: bool&lt;/div&gt;&lt;div&gt;+ continueAdventure: bool&lt;/div&gt;&lt;div&gt;+ continueContinuing: bool&lt;/div&gt;&lt;div&gt;+ windowClicked: bool&lt;/div&gt;&lt;div&gt;+ crystalBallClicked: bool&lt;/div&gt;&lt;div&gt;+ bookClicked: bool&lt;/div&gt;&lt;div&gt;+ secondBook: bool&lt;/div&gt;&lt;div&gt;+ secPath: bool&lt;/div&gt;&lt;div&gt;+ secPathDrawn: bool&lt;/div&gt;&lt;div&gt;+ crabClicked: bool&lt;/div&gt;&lt;div&gt;+ beachDrawn: bool&lt;/div&gt;&lt;div&gt;+ clearedInvent: bool&lt;/div&gt;&lt;div&gt;+ import: time, random, pygame&lt;/div&gt;" style="text;strokeColor=none;fillColor=none;align=left;verticalAlign=top;spacingLeft=4;spacingRight=4;overflow=hidden;rotatable=0;points=[[0,0.5],[1,0.5]];portConstraint=eastwest;whiteSpace=wrap;html=1;" parent="_YFQa5YUms1L-VkqHwmq-1" vertex="1">
          <mxGeometry y="26" width="160" height="304" as="geometry" />
        </mxCell>
        <mxCell id="_YFQa5YUms1L-VkqHwmq-3" value="" style="line;strokeWidth=1;fillColor=none;align=left;verticalAlign=middle;spacingTop=-1;spacingLeft=3;spacingRight=3;rotatable=0;labelPosition=right;points=[];portConstraint=eastwest;strokeColor=inherit;" parent="_YFQa5YUms1L-VkqHwmq-1" vertex="1">
          <mxGeometry y="330" width="160" height="8" as="geometry" />
        </mxCell>
        <mxCell id="OOB6zWblzWzEeh3McPLg-8" style="edgeStyle=orthogonalEdgeStyle;rounded=0;orthogonalLoop=1;jettySize=auto;html=1;exitX=0.75;exitY=1;exitDx=0;exitDy=0;entryX=0.75;entryY=0;entryDx=0;entryDy=0;" edge="1" parent="1" source="_YFQa5YUms1L-VkqHwmq-5" target="_YFQa5YUms1L-VkqHwmq-1">
          <mxGeometry relative="1" as="geometry" />
        </mxCell>
        <mxCell id="_YFQa5YUms1L-VkqHwmq-5" value="Player" style="swimlane;fontStyle=1;align=center;verticalAlign=top;childLayout=stackLayout;horizontal=1;startSize=30;horizontalStack=0;resizeParent=1;resizeParentMax=0;resizeLast=0;collapsible=1;marginBottom=0;whiteSpace=wrap;html=1;" parent="1" vertex="1">
          <mxGeometry x="360" y="40" width="160" height="108" as="geometry" />
        </mxCell>
        <mxCell id="_YFQa5YUms1L-VkqHwmq-6" value="+ hitPoints: int&lt;div&gt;+ Level: int&lt;/div&gt;&lt;div&gt;+ Intelligence: int&lt;/div&gt;&lt;div&gt;+ Damage: int&lt;/div&gt;" style="text;strokeColor=none;fillColor=none;align=left;verticalAlign=top;spacingLeft=4;spacingRight=4;overflow=hidden;rotatable=0;points=[[0,0.5],[1,0.5]];portConstraint=eastwest;whiteSpace=wrap;html=1;" parent="_YFQa5YUms1L-VkqHwmq-5" vertex="1">
          <mxGeometry y="30" width="160" height="70" as="geometry" />
        </mxCell>
        <mxCell id="_YFQa5YUms1L-VkqHwmq-7" value="" style="line;strokeWidth=1;fillColor=none;align=left;verticalAlign=middle;spacingTop=-1;spacingLeft=3;spacingRight=3;rotatable=0;labelPosition=right;points=[];portConstraint=eastwest;strokeColor=inherit;" parent="_YFQa5YUms1L-VkqHwmq-5" vertex="1">
          <mxGeometry y="100" width="160" height="8" as="geometry" />
        </mxCell>
        <mxCell id="_YFQa5YUms1L-VkqHwmq-9" value="Monster" style="swimlane;fontStyle=1;align=center;verticalAlign=top;childLayout=stackLayout;horizontal=1;startSize=26;horizontalStack=0;resizeParent=1;resizeParentMax=0;resizeLast=0;collapsible=1;marginBottom=0;whiteSpace=wrap;html=1;" parent="1" vertex="1">
          <mxGeometry x="90" y="46" width="160" height="124" as="geometry" />
        </mxCell>
        <mxCell id="_YFQa5YUms1L-VkqHwmq-10" value="+ hitPoints: int&lt;div&gt;+ loot: str&lt;/div&gt;&lt;div&gt;+ crabLoot: str&lt;/div&gt;&lt;div&gt;+ damage: int&lt;/div&gt;&lt;div&gt;&lt;br&gt;&lt;/div&gt;" style="text;strokeColor=none;fillColor=none;align=left;verticalAlign=top;spacingLeft=4;spacingRight=4;overflow=hidden;rotatable=0;points=[[0,0.5],[1,0.5]];portConstraint=eastwest;whiteSpace=wrap;html=1;" parent="_YFQa5YUms1L-VkqHwmq-9" vertex="1">
          <mxGeometry y="26" width="160" height="64" as="geometry" />
        </mxCell>
        <mxCell id="_YFQa5YUms1L-VkqHwmq-11" value="" style="line;strokeWidth=1;fillColor=none;align=left;verticalAlign=middle;spacingTop=-1;spacingLeft=3;spacingRight=3;rotatable=0;labelPosition=right;points=[];portConstraint=eastwest;strokeColor=inherit;" parent="_YFQa5YUms1L-VkqHwmq-9" vertex="1">
          <mxGeometry y="90" width="160" height="8" as="geometry" />
        </mxCell>
        <mxCell id="_YFQa5YUms1L-VkqHwmq-12" value="+ attack(Player): none" style="text;strokeColor=none;fillColor=none;align=left;verticalAlign=top;spacingLeft=4;spacingRight=4;overflow=hidden;rotatable=0;points=[[0,0.5],[1,0.5]];portConstraint=eastwest;whiteSpace=wrap;html=1;" parent="_YFQa5YUms1L-VkqHwmq-9" vertex="1">
          <mxGeometry y="98" width="160" height="26" as="geometry" />
        </mxCell>
        <mxCell id="_YFQa5YUms1L-VkqHwmq-22" value="Graphics.py" style="swimlane;fontStyle=1;align=center;verticalAlign=top;childLayout=stackLayout;horizontal=1;startSize=26;horizontalStack=0;resizeParent=1;resizeParentMax=0;resizeLast=0;collapsible=1;marginBottom=0;whiteSpace=wrap;html=1;" parent="1" vertex="1">
          <mxGeometry x="580" y="20" width="220" height="560" as="geometry" />
        </mxCell>
        <mxCell id="_YFQa5YUms1L-VkqHwmq-23" value="+ display_width: int&lt;div&gt;+ display_height: int&lt;/div&gt;&lt;div&gt;+ x: int&lt;/div&gt;&lt;div&gt;+ y: int&lt;/div&gt;&lt;div&gt;&lt;div&gt;+ screen: pygame.Surface&amp;nbsp; +&amp;nbsp;&lt;span style=&quot;background-color: initial;&quot;&gt;clock: pygame.time.Clock&amp;nbsp;&lt;/span&gt;&lt;/div&gt;&lt;div&gt;&lt;span style=&quot;background-color: initial;&quot;&gt;+ startImage: pygame.Surface&amp;nbsp; +&amp;nbsp;&lt;/span&gt;&lt;span style=&quot;background-color: initial;&quot;&gt;bookImage: pygame.Surface&lt;/span&gt;&lt;/div&gt;&lt;div&gt;&lt;span style=&quot;background-color: initial;&quot;&gt;+ pathstart,&amp;nbsp; backpackImage, bookimage, crystalBallImage, secondPath, noFirstEncount, firstEncount, beachPath, crabEncount: pygame,image.load&lt;/span&gt;&lt;/div&gt;&lt;/div&gt;" style="text;strokeColor=none;fillColor=none;align=left;verticalAlign=top;spacingLeft=4;spacingRight=4;overflow=hidden;rotatable=0;points=[[0,0.5],[1,0.5]];portConstraint=eastwest;whiteSpace=wrap;html=1;" parent="_YFQa5YUms1L-VkqHwmq-22" vertex="1">
          <mxGeometry y="26" width="220" height="214" as="geometry" />
        </mxCell>
        <mxCell id="_YFQa5YUms1L-VkqHwmq-24" value="" style="line;strokeWidth=1;fillColor=none;align=left;verticalAlign=middle;spacingTop=-1;spacingLeft=3;spacingRight=3;rotatable=0;labelPosition=right;points=[];portConstraint=eastwest;strokeColor=inherit;" parent="_YFQa5YUms1L-VkqHwmq-22" vertex="1">
          <mxGeometry y="240" width="220" height="8" as="geometry" />
        </mxCell>
        <mxCell id="_YFQa5YUms1L-VkqHwmq-25" value="+ __init__(startimage, bookImage, display_width, display_height, display_time, x, y): none&lt;div&gt;+ draw_image(image, display_width, display_height, display_time): none&lt;/div&gt;&lt;div&gt;+ draw_image1, draw_image2,&amp;nbsp; draw_image3,&amp;nbsp; draw_backpack, drawPathstart, draw_crystalBall, drawSecondPath, draw_noFirstEncount,&amp;nbsp; draw_firstEncount, draw_beachPath, draw_CrabEncount(image, display_width, display_height, display_time): none&lt;/div&gt;" style="text;strokeColor=none;fillColor=none;align=left;verticalAlign=top;spacingLeft=4;spacingRight=4;overflow=hidden;rotatable=0;points=[[0,0.5],[1,0.5]];portConstraint=eastwest;whiteSpace=wrap;html=1;" parent="_YFQa5YUms1L-VkqHwmq-22" vertex="1">
          <mxGeometry y="248" width="220" height="312" as="geometry" />
        </mxCell>
        <mxCell id="OOB6zWblzWzEeh3McPLg-1" value="button.py" style="swimlane;fontStyle=1;align=center;verticalAlign=top;childLayout=stackLayout;horizontal=1;startSize=26;horizontalStack=0;resizeParent=1;resizeParentMax=0;resizeLast=0;collapsible=1;marginBottom=0;whiteSpace=wrap;html=1;" vertex="1" parent="1">
          <mxGeometry x="110" y="240" width="160" height="210" as="geometry" />
        </mxCell>
        <mxCell id="OOB6zWblzWzEeh3McPLg-2" value="+ mouseX: pygame.mouse.get_pos()&lt;div&gt;+ mouseY: pygame.mouse.get_pos()&lt;/div&gt;" style="text;strokeColor=none;fillColor=none;align=left;verticalAlign=top;spacingLeft=4;spacingRight=4;overflow=hidden;rotatable=0;points=[[0,0.5],[1,0.5]];portConstraint=eastwest;whiteSpace=wrap;html=1;" vertex="1" parent="OOB6zWblzWzEeh3McPLg-1">
          <mxGeometry y="26" width="160" height="104" as="geometry" />
        </mxCell>
        <mxCell id="OOB6zWblzWzEeh3McPLg-3" value="" style="line;strokeWidth=1;fillColor=none;align=left;verticalAlign=middle;spacingTop=-1;spacingLeft=3;spacingRight=3;rotatable=0;labelPosition=right;points=[];portConstraint=eastwest;strokeColor=inherit;" vertex="1" parent="OOB6zWblzWzEeh3McPLg-1">
          <mxGeometry y="130" width="160" height="8" as="geometry" />
        </mxCell>
        <mxCell id="OOB6zWblzWzEeh3McPLg-4" value="+ isClicked(X1,X2,Y1,Y2): bool" style="text;strokeColor=none;fillColor=none;align=left;verticalAlign=top;spacingLeft=4;spacingRight=4;overflow=hidden;rotatable=0;points=[[0,0.5],[1,0.5]];portConstraint=eastwest;whiteSpace=wrap;html=1;" vertex="1" parent="OOB6zWblzWzEeh3McPLg-1">
          <mxGeometry y="138" width="160" height="72" as="geometry" />
        </mxCell>
        <mxCell id="OOB6zWblzWzEeh3McPLg-6" style="edgeStyle=orthogonalEdgeStyle;rounded=0;orthogonalLoop=1;jettySize=auto;html=1;exitX=1;exitY=0.5;exitDx=0;exitDy=0;entryX=0.006;entryY=0.324;entryDx=0;entryDy=0;entryPerimeter=0;" edge="1" parent="1" source="OOB6zWblzWzEeh3McPLg-2" target="_YFQa5YUms1L-VkqHwmq-2">
          <mxGeometry relative="1" as="geometry" />
        </mxCell>
        <mxCell id="OOB6zWblzWzEeh3McPLg-7" style="edgeStyle=orthogonalEdgeStyle;rounded=0;orthogonalLoop=1;jettySize=auto;html=1;exitX=1;exitY=0.5;exitDx=0;exitDy=0;entryX=-0.006;entryY=0.077;entryDx=0;entryDy=0;entryPerimeter=0;" edge="1" parent="1" source="_YFQa5YUms1L-VkqHwmq-10" target="_YFQa5YUms1L-VkqHwmq-2">
          <mxGeometry relative="1" as="geometry" />
        </mxCell>
        <mxCell id="OOB6zWblzWzEeh3McPLg-9" style="edgeStyle=orthogonalEdgeStyle;rounded=0;orthogonalLoop=1;jettySize=auto;html=1;exitX=0;exitY=0.5;exitDx=0;exitDy=0;entryX=1.006;entryY=0;entryDx=0;entryDy=0;entryPerimeter=0;" edge="1" parent="1" source="_YFQa5YUms1L-VkqHwmq-23" target="_YFQa5YUms1L-VkqHwmq-2">
          <mxGeometry relative="1" as="geometry">
            <Array as="points">
              <mxPoint x="550" y="153" />
              <mxPoint x="550" y="226" />
            </Array>
          </mxGeometry>
        </mxCell>
      </root>
    </mxGraphModel>
  </diagram>
</mxfile>
